<mxfile host="app.diagrams.net" modified="2024-10-01T18:02:11.117Z" agent="Mozilla/5.0 (Windows NT 10.0; Win64; x64) AppleWebKit/537.36 (KHTML, like Gecko) Chrome/126.0.0.0 YaBrowser/24.7.0.0 Safari/537.36" version="24.4.8" etag="ZQ5h_HHjIDowIIRmfqJH" type="github">
  <diagram name="Страница — 1" id="8MejjpTNSRV1TutwORvS">
    <mxGraphModel>
      <root>
        <mxCell id="0" />
        <mxCell id="1" parent="0" />
      </root>
    </mxGraphModel>
  </diagram>
</mxfile>
